<?xml version="1.0" standalone="no"?>
<!DOCTYPE svg PUBLIC "-//W3C//DTD SVG 20010904//EN"
 "http://www.w3.org/TR/2001/REC-SVG-20010904/DTD/svg10.dtd">
<svg version="1.0" xmlns="http://www.w3.org/2000/svg"
 width="720.000000pt" height="177.000000pt" viewBox="0 0 720.000000 177.000000"
 preserveAspectRatio="xMidYMid meet">

<g transform="translate(0.000000,177.000000) scale(0.100000,-0.100000)"
fill="#000000" stroke="none">
<path d="M1467 1506 c-3 -8 -3 -289 0 -625 l6 -611 621 2 621 3 3 623 2 622
-624 0 c-526 0 -625 -2 -629 -14z m630 -241 c95 -18 161 -19 233 -2 31 8 61
12 68 9 18 -6 15 -102 -6 -141 -23 -46 -59 -71 -113 -78 -24 -3 -49 -10 -55
-15 -7 -5 -22 -61 -34 -125 -21 -113 -23 -192 -5 -265 7 -26 4 -30 -36 -48
-53 -24 -100 -25 -140 -4 -63 32 -73 116 -38 326 12 70 19 134 16 142 -5 12
-16 12 -74 1 -89 -17 -97 -10 -90 68 12 132 85 168 274 132z"/>
<path d="M4060 1221 c-94 -30 -180 -103 -220 -186 -20 -41 -24 -66 -24 -140
-1 -80 2 -96 28 -147 90 -177 313 -245 510 -155 133 61 210 207 186 352 -13
80 -43 135 -101 190 -76 71 -124 89 -249 92 -58 1 -116 -1 -130 -6z m202 -240
c24 -26 28 -40 28 -87 0 -50 -3 -59 -34 -90 -38 -38 -86 -45 -135 -19 -78 40
-77 177 1 222 39 23 108 10 140 -26z"/>
<path d="M3134 1207 c-3 -8 -4 -52 -2 -98 l3 -84 90 -5 90 -5 3 -222 c2 -193
4 -222 18 -225 9 -2 60 -1 113 2 l96 5 3 223 2 222 90 0 90 0 0 100 0 100
-295 0 c-237 0 -297 -3 -301 -13z"/>
<path d="M4662 898 l3 -323 112 -3 112 -3 3 137 c2 92 7 139 14 141 7 2 38
-45 69 -104 32 -59 69 -123 82 -140 l24 -33 124 0 c121 0 125 1 130 23 3 12 4
157 3 322 l-3 300 -115 0 -115 0 -5 -144 c-6 -168 -4 -168 -90 -6 -29 55 -62
112 -72 128 l-19 27 -130 0 -129 0 2 -322z"/>
<path d="M5477 1214 c-4 -4 -7 -146 -7 -314 0 -251 3 -310 14 -319 9 -8 50
-11 117 -9 l104 3 0 320 0 320 -111 3 c-60 1 -113 -1 -117 -4z"/>
</g>
</svg>
